<svg width="1240" height="600" viewBox="0 0 1240 600" fill="none" xmlns="http://www.w3.org/2000/svg">
<path id="Exclude" fill-rule="evenodd" clip-rule="evenodd" d="M1240 0H0V600H1240V0ZM486 375H511V300.5H334V375H361V378.5C361 392.5 358 402.667 352 409C346.333 415 337.167 418 324.5 418C311.833 418 302.5 415 296.5 409C290.833 402.667 288 392.5 288 378.5V232.5C288 218.5 290.833 208.5 296.5 202.5C302.5 196.167 311.833 193 324.5 193C337.167 193 346.333 196.167 352 202.5C358 208.5 361 218.5 361 232.5V256H486V136.5C472 128.167 451.167 120.667 423.5 114C395.833 107.333 366.167 104 334.5 104C269.167 104 218.833 120 183.5 152C148.5 184 131 235.167 131 305.5C131 374.167 148.667 425 184 458C219.333 490.667 268.167 507 330.5 507C363.167 507 393.5 503.833 421.5 497.5C449.833 490.833 471.333 483.333 486 475V375Z" fill="#7FBFD2"/>
</svg>
