<svg width="16" height="16" viewBox="0 0 16 16" fill="none" xmlns="http://www.w3.org/2000/svg">
<path d="M14.9 3.6C14.35 2.7 12.9 2.6 10.8 3.3C10 2.8 9.05 2.5 8 2.5C4.95 2.5 2.5 4.95 2.5 8C2.5 8.2 2.5 8.4 2.55 8.6C1.15 10.15 0.65 11.45 1.2 12.3C1.55 12.85 2.15 13.05 2.95 13.05C4.7 13.05 7.35 11.95 9.65 10.45C11.4 9.35 12.95 8.05 13.9 6.8C15.35 5.15 15.25 4.15 14.9 3.6ZM2.05 11.8C1.85 11.5 2.05 10.8 2.85 9.85C3.15 10.65 3.6 11.35 4.2 11.95C3.05 12.2 2.25 12.15 2.05 11.8ZM13.2 6.2C12.9 5.35 12.45 4.6 11.8 4C13.1 3.7 13.85 3.8 14.05 4.1C14.25 4.4 14.1 5.1 13.2 6.2Z" fill="#7FBFD2"/>
<path d="M5.9 13.1C6.55 13.35 7.25 13.5 8 13.5C10.9 13.5 13.25 11.25 13.5 8.4C12.55 9.3 11.4 10.2 10.2 11C8.7 11.9 7.25 12.65 5.9 13.1Z" fill="#7FBFD2"/>
</svg>
