<svg width="100" height="100" viewBox="0 0 100 100" fill="none" xmlns="http://www.w3.org/2000/svg">
<g id="instagram 1">
<g id="Component 1">
<g id="yMVK6O.tif 36">
<g id="Group">
<g id="Group_2">
<path id="Vector" d="M27.9444 14C40.8444 14 53.7444 14 66.6444 14C66.7444 14 66.9444 14.1 67.0444 14.1C73.1444 14.8 77.5444 19.7 77.5444 25.8C77.5444 38.1 77.5444 50.5 77.5444 62.8C77.5444 69.3 72.3444 74.5 65.8444 74.5C53.4444 74.5 41.1444 74.5 28.7444 74.5C26.7444 74.5 24.7444 74 23.0444 73C19.1444 70.7 17.0444 67.2 17.0444 62.6C17.0444 52 17.0444 41.4 17.0444 30.8C17.0444 28.9 16.9444 27.1 17.0444 25.2C17.3444 20.6 19.5444 17.2 23.7444 15.2C25.0444 14.6 26.5444 14.4 27.9444 14ZM47.2444 68.6C53.3444 68.6 59.4444 68.6 65.5444 68.6C69.1444 68.6 71.6444 66.2 71.6444 62.6C71.6444 54.7 71.6444 46.7 71.6444 38.8C71.6444 38.3 71.5444 38.1 71.0444 38.1C68.4444 38.1 65.9444 38.1 63.3444 38.1C62.8444 38.1 62.6444 38.2 62.8444 38.7C63.7444 41.2 64.0444 43.7 63.6444 46.3C62.4444 56.3 52.4444 62.9 42.8444 60.2C33.5444 57.6 28.4444 47.8 31.7444 38.7C31.9444 38.2 31.8444 38 31.3444 38.1C28.8444 38.1 26.2444 38.1 23.7444 38.1C23.1444 38.1 23.0444 38.3 23.0444 38.9C23.0444 46.8 23.0444 54.7 23.0444 62.5C23.0444 66.2 25.9444 68.7 29.1444 68.7C35.1444 68.5 41.2444 68.6 47.2444 68.6ZM47.3444 33.7C41.4444 33.7 36.7444 38.5 36.7444 44.4C36.7444 50.2 41.5444 54.9 47.3444 54.9C53.1444 54.9 57.9444 50.1 57.9444 44.4C57.9444 38.5 53.1444 33.7 47.3444 33.7ZM65.4444 21.1C63.9444 21.1 62.4444 21.1 60.9444 21.1C60.5444 21.1 60.3444 21.2 60.3444 21.6C60.3444 24.6 60.3444 27.7 60.3444 30.7C60.3444 31.2 60.5444 31.3 60.9444 31.3C63.9444 31.3 66.9444 31.3 69.9444 31.3C70.3444 31.3 70.5444 31.2 70.5444 30.7C70.5444 27.7 70.5444 24.7 70.5444 21.7C70.5444 21.2 70.4444 21.1 69.9444 21.1C68.4444 21.1 66.9444 21.1 65.4444 21.1Z" fill="#27282E"/>
</g>
</g>
</g>
</g>
</g>
</svg>
