<svg width="50" height="50" viewBox="0 0 50 50" fill="none" xmlns="http://www.w3.org/2000/svg">
<g clip-path="url(#clip0)">
<g filter="url(#filter0_f)">
<path d="M10.9375 39.1071V19.375H16.9643V39.1071H10.9375Z" fill="#7FBFD2"/>
<path d="M10.4375 39.1071V39.6071H10.9375H16.9643H17.4643V39.1071V19.375V18.875H16.9643H10.9375H10.4375V19.375V39.1071Z" stroke="#7FBFD2"/>
</g>
<g filter="url(#filter1_f)">
<path d="M17.1875 13.9286C17.2321 15.625 15.9821 17.0089 13.9286 17.0089C12.0536 17.0089 10.8036 15.625 10.8036 13.9286C10.8036 12.1875 12.0536 10.8482 14.0178 10.8482C15.9821 10.8482 17.1875 12.1875 17.1875 13.9286Z" fill="#7FBFD2"/>
<path d="M13.9286 17.5089C15.0706 17.5089 16.0283 17.1219 16.6966 16.4602C17.3628 15.8007 17.7115 14.8971 17.6875 13.922C17.686 12.9372 17.3427 12.0384 16.6946 11.3837C16.0433 10.7258 15.1177 10.3482 14.0178 10.3482C12.9186 10.3482 11.9839 10.7252 11.3223 11.3802C10.6617 12.0342 10.3036 12.9359 10.3036 13.9286C10.3036 15.8916 11.7679 17.5089 13.9286 17.5089Z" stroke="#7FBFD2"/>
</g>
<g filter="url(#filter2_f)">
<mask id="path-5-outside-1" maskUnits="userSpaceOnUse" x="18.4911" y="17.9732" width="22" height="23" fill="black">
<rect fill="white" x="18.4911" y="17.9732" width="22" height="23"/>
<path d="M32.9911 39.1071V28.1696C32.9911 25.625 32.1428 23.8839 29.9107 23.8839C28.2589 23.8839 27.2768 25.0446 26.7857 26.2054C26.6518 26.6071 26.6071 27.1875 26.6071 27.7679V39.1071H20.625V25.7143C20.625 23.2589 20.5357 21.2054 20.4911 19.4196H25.7143L25.9821 22.1875H26.0714C26.875 20.8482 28.8393 18.9732 32.0982 18.9732C36.0714 18.9732 39.0625 21.6518 39.0625 27.5V39.1518H32.9911"/>
</mask>
<path d="M32.9911 39.1071V28.1696C32.9911 25.625 32.1428 23.8839 29.9107 23.8839C28.2589 23.8839 27.2768 25.0446 26.7857 26.2054C26.6518 26.6071 26.6071 27.1875 26.6071 27.7679V39.1071H20.625V25.7143C20.625 23.2589 20.5357 21.2054 20.4911 19.4196H25.7143L25.9821 22.1875H26.0714C26.875 20.8482 28.8393 18.9732 32.0982 18.9732C36.0714 18.9732 39.0625 21.6518 39.0625 27.5V39.1518H32.9911" fill="#7FBFD2"/>
<path d="M26.7857 26.2054L25.8647 25.8157L25.8494 25.8519L25.837 25.8891L26.7857 26.2054ZM26.6071 39.1071V40.1071H27.6071V39.1071H26.6071ZM20.625 39.1071H19.625V40.1071H20.625V39.1071ZM20.4911 19.4196V18.4196H19.4657L19.4914 19.4446L20.4911 19.4196ZM25.7143 19.4196L26.7096 19.3233L26.6222 18.4196H25.7143V19.4196ZM25.9821 22.1875L24.9868 22.2838L25.0742 23.1875H25.9821V22.1875ZM26.0714 22.1875V23.1875H26.6376L26.9289 22.702L26.0714 22.1875ZM39.0625 39.1518V40.1518H40.0625V39.1518H39.0625ZM33.9911 39.1071V28.1696H31.9911V39.1071H33.9911ZM33.9911 28.1696C33.9911 26.8168 33.7711 25.5166 33.1257 24.5265C32.4336 23.4647 31.3335 22.8839 29.9107 22.8839V24.8839C30.72 24.8839 31.1601 25.1737 31.4502 25.6186C31.7869 26.1352 31.9911 26.9778 31.9911 28.1696H33.9911ZM29.9107 22.8839C27.6857 22.8839 26.4324 24.4738 25.8647 25.8157L27.7067 26.595C28.1211 25.6154 28.8321 24.8839 29.9107 24.8839V22.8839ZM25.837 25.8891C25.649 26.4531 25.6071 27.1706 25.6071 27.7679H27.6071C27.6071 27.2044 27.6545 26.7612 27.7344 26.5216L25.837 25.8891ZM25.6071 27.7679V39.1071H27.6071V27.7679H25.6071ZM26.6071 38.1071H20.625V40.1071H26.6071V38.1071ZM21.625 39.1071V25.7143H19.625V39.1071H21.625ZM21.625 25.7143C21.625 23.2424 21.5349 21.1589 21.4907 19.3946L19.4914 19.4446C19.5365 21.2518 19.625 23.2754 19.625 25.7143H21.625ZM20.4911 20.4196H25.7143V18.4196H20.4911V20.4196ZM24.7189 19.516L24.9868 22.2838L26.9775 22.0912L26.7096 19.3233L24.7189 19.516ZM25.9821 23.1875H26.0714V21.1875H25.9821V23.1875ZM26.9289 22.702C27.5945 21.5926 29.2664 19.9732 32.0982 19.9732V17.9732C28.4122 17.9732 26.1554 20.1038 25.2139 21.673L26.9289 22.702ZM32.0982 19.9732C33.8517 19.9732 35.3004 20.5571 36.3227 21.7077C37.3567 22.8715 38.0625 24.7377 38.0625 27.5H40.0625C40.0625 24.4141 39.2727 22.0168 37.8179 20.3793C36.3513 18.7286 34.3179 17.9732 32.0982 17.9732V19.9732ZM38.0625 27.5V39.1518H40.0625V27.5H38.0625ZM39.0625 38.1518H32.9911V40.1518H39.0625V38.1518Z" fill="#7FBFD2" mask="url(#path-5-outside-1)"/>
</g>
</g>
<path d="M10.9375 39.1071V19.375H16.9643V39.1071H10.9375Z" fill="#27282E"/>
<path d="M17.1875 13.9286C17.2321 15.625 15.9821 17.0089 13.9286 17.0089C12.0536 17.0089 10.8036 15.625 10.8036 13.9286C10.8036 12.1875 12.0536 10.8482 14.0178 10.8482C15.9821 10.8482 17.1875 12.1875 17.1875 13.9286Z" fill="#27282E"/>
<path d="M32.9911 39.1071V28.1696C32.9911 25.625 32.1428 23.8839 29.9107 23.8839C28.2589 23.8839 27.2768 25.0446 26.7857 26.2054C26.6518 26.6071 26.6071 27.1875 26.6071 27.7679V39.1071H20.625V25.7143C20.625 23.2589 20.5357 21.2054 20.4911 19.4196H25.7143L25.9821 22.1875H26.0714C26.875 20.8482 28.8393 18.9732 32.0982 18.9732C36.0714 18.9732 39.0625 21.6518 39.0625 27.5V39.1518H32.9911" fill="#27282E"/>
<defs>
<filter id="filter0_f" x="-0.0625" y="8.375" width="28.0268" height="41.7321" filterUnits="userSpaceOnUse" color-interpolation-filters="sRGB">
<feFlood flood-opacity="0" result="BackgroundImageFix"/>
<feBlend mode="normal" in="SourceGraphic" in2="BackgroundImageFix" result="shape"/>
<feGaussianBlur stdDeviation="5" result="effect1_foregroundBlur"/>
</filter>
<filter id="filter1_f" x="-0.196442" y="-0.151787" width="28.3851" height="28.1607" filterUnits="userSpaceOnUse" color-interpolation-filters="sRGB">
<feFlood flood-opacity="0" result="BackgroundImageFix"/>
<feBlend mode="normal" in="SourceGraphic" in2="BackgroundImageFix" result="shape"/>
<feGaussianBlur stdDeviation="5" result="effect1_foregroundBlur"/>
</filter>
<filter id="filter2_f" x="9.46576" y="7.97321" width="40.5967" height="42.1786" filterUnits="userSpaceOnUse" color-interpolation-filters="sRGB">
<feFlood flood-opacity="0" result="BackgroundImageFix"/>
<feBlend mode="normal" in="SourceGraphic" in2="BackgroundImageFix" result="shape"/>
<feGaussianBlur stdDeviation="5" result="effect1_foregroundBlur"/>
</filter>
<clipPath id="clip0">
<rect width="50" height="50" fill="white"/>
</clipPath>
</defs>
</svg>
