<svg width="1240" height="600" viewBox="0 0 1240 600" fill="none" xmlns="http://www.w3.org/2000/svg">
<path fill-rule="evenodd" clip-rule="evenodd" d="M1240 0H0V600H1240V0ZM200.597 518.9C232.131 524.767 265.497 527.7 300.697 527.7C361.197 527.7 407.031 515.783 438.197 491.95C469.731 468.117 485.497 432.917 485.497 386.35C485.497 352.25 476.514 324.75 458.547 303.85C440.947 282.583 412.714 265.35 373.847 252.15L325.997 235.65C313.897 231.617 305.097 227.767 299.597 224.1C294.464 220.433 291.897 215.483 291.897 209.25C291.897 202.283 294.097 197.517 298.497 194.95C303.264 192.017 311.147 190.55 322.147 190.55C344.881 190.55 356.247 199.717 356.247 218.05H466.247V119.6C449.014 108.967 426.281 100.533 398.047 94.3C370.181 87.7 340.297 84.4 308.397 84.4C242.031 84.4 194.547 95.7666 165.947 118.5C137.714 140.867 123.597 173.683 123.597 216.95C123.597 252.517 132.397 280.75 149.997 301.65C167.964 322.55 197.297 340.7 237.997 356.1L285.297 372.6C297.031 377 305.281 381.4 310.047 385.8C314.814 389.833 317.197 394.783 317.197 400.65C317.197 407.617 314.631 412.933 309.497 416.6C304.731 419.9 296.664 421.55 285.297 421.55C271.731 421.55 262.381 418.983 257.247 413.85C252.114 408.717 249.547 400.467 249.547 389.1H128.547V498C145.414 505.7 169.431 512.667 200.597 518.9Z" fill="#A1D461"/>
</svg>
