<svg width="1240" height="600" viewBox="0 0 1240 600" fill="none" xmlns="http://www.w3.org/2000/svg">
<path fill-rule="evenodd" clip-rule="evenodd" d="M1240 0H0V600H1240V0ZM487.588 382.5H515.088V300.55H320.388V382.5H350.088V386.35C350.088 401.75 346.788 412.933 340.188 419.9C333.954 426.5 323.871 429.8 309.938 429.8C296.004 429.8 285.738 426.5 279.138 419.9C272.904 412.933 269.788 401.75 269.788 386.35V225.75C269.788 210.35 272.904 199.35 279.138 192.75C285.738 185.783 296.004 182.3 309.938 182.3C323.871 182.3 333.954 185.783 340.188 192.75C346.788 199.35 350.088 210.35 350.088 225.75V251.6H487.588V120.15C472.188 110.983 449.271 102.733 418.838 95.4C388.404 88.0666 355.771 84.4 320.938 84.4C249.071 84.4 193.704 102 154.838 137.2C116.338 172.4 97.0877 228.683 97.0877 306.05C97.0877 381.583 116.521 437.5 155.388 473.8C194.254 509.733 247.971 527.7 316.538 527.7C352.471 527.7 385.838 524.217 416.638 517.25C447.804 509.917 471.454 501.667 487.588 492.5V382.5Z" fill="#7FBFD2"/>
</svg>
