<svg width="1240" height="600" viewBox="0 0 1240 600" fill="none" xmlns="http://www.w3.org/2000/svg">
<path fill-rule="evenodd" clip-rule="evenodd" d="M1240 0H0V600H1240V0ZM139.973 429.8H112.473V520H346.773V429.8H293.973V350.6H353.923C401.223 350.6 437.339 340.517 462.273 320.35C487.206 299.817 499.673 266.817 499.673 221.35C499.673 175.883 487.206 143.067 462.273 122.9C437.339 102.367 401.223 92.1 353.923 92.1H112.473V182.3H139.973V429.8ZM344.573 237.3C344.573 260.767 333.939 272.5 312.673 272.5H293.973V182.3H312.673C323.306 182.3 331.189 185.233 336.323 191.1C341.823 196.6 344.573 205.4 344.573 217.5V237.3Z" fill="#FFB244"/>
</svg>
